<svg width="35" height="36" viewBox="0 0 35 36" fill="none" xmlns="http://www.w3.org/2000/svg">
<g id="&#240;&#159;&#166;&#134; icon &#34;cleaning services&#34;">
<path id="Vector" d="M23.3333 16.6243H21.875V4.95768C21.875 3.35352 20.5625 2.04102 18.9583 2.04102H16.0417C14.4375 2.04102 13.125 3.35352 13.125 4.95768V16.6243H11.6667C7.64167 16.6243 4.375 19.891 4.375 23.916V34.1243H30.625V23.916C30.625 19.891 27.3583 16.6243 23.3333 16.6243ZM16.0417 4.95768H18.9583V16.6243H16.0417V4.95768ZM27.7083 31.2077H24.7917V26.8327C24.7917 26.0306 24.1354 25.3743 23.3333 25.3743C22.5313 25.3743 21.875 26.0306 21.875 26.8327V31.2077H18.9583V26.8327C18.9583 26.0306 18.3021 25.3743 17.5 25.3743C16.6979 25.3743 16.0417 26.0306 16.0417 26.8327V31.2077H13.125V26.8327C13.125 26.0306 12.4688 25.3743 11.6667 25.3743C10.8646 25.3743 10.2083 26.0306 10.2083 26.8327V31.2077H7.29167V23.916C7.29167 21.5098 9.26042 19.541 11.6667 19.541H23.3333C25.7396 19.541 27.7083 21.5098 27.7083 23.916V31.2077Z" fill="#253858"/>
</g>
</svg>
